<svg version="1.1" id="Layer_1" xmlns="http://www.w3.org/2000/svg" xmlns:xlink="http://www.w3.org/1999/xlink" x="0px" y="0px"
	 width="100%" viewBox="0 0 591 499" enable-background="new 0 0 591 499" xml:space="preserve">
<path fill="none" opacity="0" stroke="none" 
	d="
M1.000000,487.000000 
	C1.000000,326.308411 1.000000,165.616852 1.461255,4.462298 
	C195.942322,3.999302 389.962128,3.999569 583.981934,3.995351 
	C585.979004,3.995307 587.976074,3.936182 589.980225,4.379222 
	C589.990417,163.640762 589.967834,322.427765 590.112793,481.214600 
	C590.117432,486.314972 588.383911,487.100342 583.829834,487.097809 
	C389.553253,486.989349 195.276627,487.002136 1.000000,487.000000 
M356.512085,206.170044 
	C358.279266,205.498413 360.370605,205.218750 361.749878,204.078064 
	C365.209106,201.217270 368.176880,197.758026 371.662201,194.934341 
	C374.824646,192.372223 375.201630,189.262634 375.787079,185.467621 
	C377.918121,171.653412 373.147461,161.296524 361.639709,153.849060 
	C359.699097,152.593185 357.302460,151.338028 355.098755,151.305969 
	C339.937439,151.085342 324.771362,151.182495 309.606873,151.202347 
	C308.176270,151.204224 306.745880,151.378220 305.475220,151.461792 
	C305.475220,156.517136 305.475220,161.092865 305.475220,165.902451 
	C320.976624,165.902451 336.125519,165.883484 351.274292,165.912933 
	C356.444611,165.922974 360.191772,169.711075 360.244049,174.859116 
	C360.266052,177.025269 360.249603,179.191803 360.247498,181.358170 
	C360.240540,188.451279 356.866577,191.742554 349.584869,191.746078 
	C340.086212,191.750687 330.587555,191.747238 321.088898,191.747238 
	C315.828125,191.747238 310.567352,191.747238 305.366669,191.747238 
	C305.366669,209.842834 305.366669,227.281235 305.366669,244.917923 
	C310.381592,244.917923 315.152191,244.917923 320.426208,244.917923 
	C320.426208,232.018692 320.426208,219.270706 320.426208,206.653885 
	C328.247101,205.137039 333.895996,206.320129 338.636505,213.372467 
	C345.489685,223.567764 353.734100,232.831116 361.457031,242.434082 
	C362.324463,243.512711 363.624603,244.917938 364.782104,244.974014 
	C370.291321,245.240921 375.820618,245.093430 382.135040,245.093430 
	C371.598846,231.794159 361.743530,219.354340 351.298676,206.170380 
	C353.484711,206.170380 354.590057,206.170380 356.512085,206.170044 
M331.690613,269.224060 
	C346.266724,269.224060 360.842834,269.224060 375.207031,269.224060 
	C375.207031,263.894836 375.207031,259.322357 375.207031,254.466888 
	C364.000458,254.466888 353.059265,255.511856 342.403259,254.214508 
	C327.550629,252.406204 316.264862,256.892029 307.701935,268.902527 
	C307.416168,269.303345 306.872772,269.555328 306.679932,269.981079 
	C306.098053,271.265442 305.248627,272.580475 305.174988,273.920441 
	C304.121399,293.098175 304.087921,293.162720 317.764313,306.197937 
	C319.332855,307.692963 322.012543,308.679443 324.210541,308.743011 
	C333.701324,309.017456 343.204803,308.825104 352.703278,308.875122 
	C357.669739,308.901306 361.039185,312.272217 361.093323,317.104126 
	C361.113861,318.937012 361.096558,320.770264 361.096405,322.603363 
	C361.095673,330.525482 357.383179,334.213684 349.403290,334.216614 
	C344.237305,334.218536 339.071350,334.217010 333.905365,334.217010 
	C324.455994,334.217010 315.006592,334.217010 305.475342,334.217010 
	C305.475342,339.469604 305.475342,344.175171 305.475342,349.013428 
	C319.161621,349.013428 332.524414,348.429352 345.807007,349.210083 
	C355.332794,349.769989 362.366638,347.243225 368.968964,340.133118 
	C373.621979,335.122284 375.294952,330.445129 375.931702,323.742523 
	C377.060394,311.862396 373.323700,303.149689 363.676270,296.726288 
	C361.758636,295.449493 359.344666,294.276337 357.124207,294.208282 
	C347.967377,293.927612 338.796906,294.103027 329.631500,294.086304 
	C323.763062,294.075592 320.314850,290.542664 320.286255,284.562744 
	C320.279083,283.062958 320.276489,281.563080 320.286438,280.063324 
	C320.323792,274.433380 325.017670,269.573029 331.690613,269.224060 
M197.569153,242.215164 
	C199.599747,246.493683 203.570221,245.278839 206.753922,244.875351 
	C208.065964,244.709076 209.118530,241.993652 210.166412,240.359009 
	C211.862701,237.712952 211.034485,235.621674 209.093506,233.255219 
	C201.971039,224.571381 195.096603,215.684113 187.884842,206.564911 
	C196.421448,205.768738 196.421402,205.768692 202.547134,199.919693 
	C204.113586,198.423996 205.547241,196.748566 207.275055,195.471054 
	C210.799347,192.865280 211.306992,189.427002 211.907806,185.238281 
	C213.855148,171.661835 209.514587,161.300934 198.058228,153.965500 
	C195.984283,152.637573 193.422195,151.366699 191.058365,151.315262 
	C178.901749,151.050659 166.736267,151.192642 154.573883,151.192627 
	C150.473022,151.192627 146.372177,151.192627 142.313751,151.192627 
	C142.313751,156.418228 142.313751,161.002747 142.313751,165.900574 
	C157.562195,165.900574 172.526031,165.882050 187.489792,165.910721 
	C192.656204,165.920609 196.499939,169.726624 196.565659,174.801559 
	C196.600174,177.466843 196.609177,180.133575 196.563583,182.798523 
	C196.479813,187.695114 192.397217,191.724075 187.418777,191.739853 
	C176.089539,191.775757 164.760132,191.751282 153.430786,191.751312 
	C149.686005,191.751328 145.941223,191.751312 142.255371,191.751312 
	C142.255371,209.891281 142.255371,227.319366 142.255371,244.818115 
	C147.207794,244.818115 151.926483,244.818115 157.143280,244.818115 
	C157.143280,231.803543 157.143280,219.079880 157.143280,206.678101 
	C164.975021,204.807892 170.315689,206.746368 174.877182,213.365509 
	C181.663498,223.213043 189.611908,232.259750 197.569153,242.215164 
M292.003571,319.420135 
	C285.657318,302.492462 279.357727,285.547058 272.934845,268.648499 
	C271.133972,263.910431 270.174225,257.431641 266.639893,255.166687 
	C262.989960,252.827682 256.675385,254.646729 251.065018,254.646729 
	C238.872925,285.832764 226.615768,317.185211 214.270020,348.764313 
	C220.451050,348.764313 225.719238,348.764313 231.131088,348.764313 
	C233.971588,340.974731 236.599762,333.286774 239.662704,325.776123 
	C240.270233,324.286377 242.517975,322.550659 244.056839,322.504272 
	C253.869217,322.208527 263.699127,322.211212 273.511841,322.501587 
	C275.059814,322.547394 277.334045,324.230865 277.935028,325.703094 
	C281.049896,333.333771 283.730560,341.141724 286.530731,348.800812 
	C292.136902,348.800812 297.389038,348.800812 303.049805,348.800812 
	C299.364075,339.046326 295.797211,329.606537 292.003571,319.420135 
M260.339905,151.194809 
	C258.840637,151.194809 257.297516,151.426514 255.850113,151.152527 
	C250.979080,150.230453 249.031158,152.692902 247.363022,156.963287 
	C236.493118,184.789978 225.348450,212.509323 214.310837,240.270599 
	C213.734283,241.720734 213.314331,243.233139 212.689224,245.114594 
	C217.794846,245.114594 222.298599,244.876129 226.761932,245.197906 
	C229.769684,245.414749 230.769623,244.036819 231.629135,241.553741 
	C234.445023,233.419113 237.452682,225.350861 240.492310,216.965500 
	C251.380203,216.965500 262.189911,216.880219 272.993500,217.098495 
	C274.063873,217.120148 275.585144,218.805801 276.066711,220.042511 
	C278.896851,227.310608 281.399017,234.706360 284.225067,241.976181 
	C284.710754,243.225540 286.161407,244.887680 287.269135,244.969650 
	C291.840454,245.307968 296.451416,245.111389 301.466797,245.111389 
	C300.838440,243.134018 300.455811,241.712173 299.940430,240.340195 
	C289.375793,212.218170 278.697723,184.137985 268.334778,155.941925 
	C266.926270,152.109543 265.193634,150.444138 260.339905,151.194809 
M203.297714,296.906952 
	C203.297714,295.625122 203.297714,294.343292 203.297714,293.049713 
	C182.609543,293.049713 162.410675,293.049713 142.269623,293.049713 
	C142.269623,311.821686 142.269623,330.250000 142.269623,348.778961 
	C164.918884,348.778961 187.323380,348.778961 209.690308,348.778961 
	C209.690308,343.838440 209.690308,339.138367 209.690308,334.007874 
	C191.927841,334.007874 174.535645,334.007874 157.192993,334.007874 
	C157.192993,324.963837 157.192993,316.362274 157.192993,307.452576 
	C172.557846,307.452576 187.666916,307.452576 203.297775,307.452576 
	C203.297775,304.033630 203.297775,300.911377 203.297714,296.906952 
M439.315613,307.539246 
	C441.589600,307.539246 443.863586,307.539246 446.357849,307.539246 
	C446.357849,302.359070 446.357849,297.782410 446.357849,292.953430 
	C425.927216,292.953430 405.696777,292.953430 385.459961,292.953430 
	C385.459961,311.709106 385.459961,330.249451 385.459961,348.638519 
	C407.478180,348.638519 429.174835,348.638519 450.625916,348.638519 
	C450.625916,343.676941 450.625916,339.094452 450.625916,334.050598 
	C433.600098,334.050598 416.900635,334.050598 400.228027,334.050598 
	C400.228027,324.974792 400.228027,316.381134 400.228027,307.539246 
	C413.100616,307.539246 425.728333,307.539246 439.315613,307.539246 
M446.505798,202.096603 
	C446.505798,197.801620 446.505798,193.506638 446.505798,189.120514 
	C425.877716,189.120514 405.664398,189.120514 385.393372,189.120514 
	C385.393372,207.878113 385.393372,226.294373 385.393372,244.775574 
	C407.346008,244.775574 429.049469,244.775574 450.677277,244.775574 
	C450.677277,239.841385 450.677277,235.252625 450.677277,230.176178 
	C433.690460,230.176178 416.970978,230.176178 400.315857,230.176178 
	C400.315857,220.949677 400.315857,212.225174 400.315857,203.219391 
	C402.626251,203.219391 404.600830,203.232925 406.575104,203.217209 
	C419.722717,203.112534 432.870209,203.001602 446.505798,202.096603 
M152.549194,269.228180 
	C171.636078,269.228180 190.722977,269.228180 209.866119,269.228180 
	C209.866119,264.130646 209.866119,259.522003 209.866119,254.688202 
	C187.262711,254.688202 164.865082,254.688202 142.319550,254.688202 
	C142.319550,259.600281 142.319550,264.291107 142.319550,269.228149 
	C145.603317,269.228149 148.587738,269.228149 152.549194,269.228180 
M386.142944,254.613129 
	C385.685913,259.362305 385.228851,264.111481 384.768677,268.893372 
	C407.395660,268.893372 429.085388,268.893372 450.663818,268.893372 
	C450.663818,263.971619 450.663818,259.394257 450.663818,254.475601 
	C429.258606,254.475601 408.150909,254.475601 386.142944,254.613129 
M395.538391,165.900391 
	C413.952576,165.900391 432.366760,165.900391 450.715363,165.900391 
	C450.715363,160.578125 450.715363,155.974350 450.715363,151.354828 
	C428.770233,151.354828 407.064331,151.354828 385.145935,151.354828 
	C385.145935,154.013351 385.145905,156.328033 385.145905,158.642715 
	C385.145905,160.922806 385.145935,163.202911 385.145935,165.900391 
	C388.635193,165.900391 391.595337,165.900391 395.538391,165.900391 
M469.236633,338.483551 
	C466.290710,338.483551 463.344757,338.483551 460.463989,338.483551 
	C459.625427,348.500946 459.631714,348.523376 463.460358,348.438812 
	C463.460358,346.217651 463.460358,343.988495 463.460358,340.382080 
	C467.156860,343.880768 469.944336,346.519073 472.731812,349.157349 
	C473.129852,348.698090 473.527924,348.238831 473.925964,347.779572 
	C472.665192,345.940338 471.404419,344.101105 469.985199,342.030731 
	C473.071320,339.750732 475.715759,337.120178 473.090424,333.026123 
	C471.271851,330.190155 464.308441,329.784882 460.137115,332.760406 
	C462.637726,333.437012 465.190979,333.562988 467.745178,333.664093 
	C471.067169,333.795624 471.926788,335.199554 469.236633,338.483551 
M478.041504,336.320557 
	C477.783020,331.981171 481.109161,334.178497 482.921600,333.684113 
	C484.583649,333.230774 486.295258,332.958984 487.985016,332.607208 
	C487.885254,332.091522 487.785461,331.575867 487.685669,331.060181 
	C483.531036,331.060181 479.376404,331.060181 475.270569,331.060181 
	C475.270569,337.170532 475.270569,342.917786 475.270569,348.616943 
	C479.662689,348.616943 483.801605,348.616943 487.940552,348.616943 
	C488.035492,347.992065 488.130432,347.367157 488.225403,346.742279 
	C484.921814,346.355835 481.618225,345.969421 478.258057,345.576385 
	C478.258057,344.115417 478.258057,342.708771 478.258057,341.519653 
	C481.043365,340.931427 483.573212,340.397125 486.103088,339.862854 
	C485.965363,339.385895 485.827606,338.908966 485.689880,338.432037 
	C483.163788,338.034698 480.637695,337.637360 478.041504,336.320557 
M485.195801,328.991058 
	C486.112335,328.406708 487.028870,327.822357 487.945404,327.238007 
	C487.032898,326.821289 486.128448,326.066193 485.206543,326.044220 
	C480.211121,325.925323 475.211395,325.987549 470.213135,325.987488 
	C466.868744,325.987427 463.524323,325.987488 460.000916,325.987488 
	C460.241333,327.486664 460.304657,328.376007 460.395660,328.378876 
	C468.345398,328.627045 476.297302,328.806885 485.195801,328.991058 
z"/>
<path fill="#FFFFFF" opacity="1.000000" stroke="none" 
	d="
M592.000000,489.000000 
	C591.666626,492.666656 591.333313,496.333344 590.485474,499.560425 
	C588.029602,498.748749 586.088379,498.051239 584.147034,498.050720 
	C389.764679,497.999756 195.382339,498.001526 1.000000,498.000000 
	C1.000000,495.958313 1.000000,493.916656 1.468657,491.437134 
	C194.083755,490.999115 386.230194,491.012726 578.376587,490.915253 
	C582.918091,490.912964 587.458862,489.666229 592.000000,489.000000 
z"/>
<path fill="#FFFFFF" opacity="1.000000" stroke="none" 
	d="
M592.000000,488.531311 
	C587.458862,489.666229 582.918091,490.912964 578.376587,490.915253 
	C386.230194,491.012726 194.083755,490.999115 1.468657,490.999634 
	C1.000000,489.933319 1.000000,488.866669 1.000000,487.399994 
	C195.276627,487.002136 389.553253,486.989349 583.829834,487.097809 
	C588.383911,487.100342 590.117432,486.314972 590.112793,481.214600 
	C589.967834,322.427765 589.990417,163.640762 589.994568,4.016360 
	C590.001221,2.452610 590.000610,1.726305 590.000000,0.999990 
	C590.666687,1.332419 591.783813,1.546117 591.909058,2.021266 
	C592.196411,3.111171 592.000000,4.328568 592.000000,5.494193 
	C592.000000,166.350357 592.000000,327.206512 592.000000,488.531311 
z"/>
<path fill="#FFFFFF" opacity="1.000000" stroke="none" 
	d="
M589.538818,1.000000 
	C590.000610,1.726305 590.001221,2.452610 589.987488,3.541777 
	C587.976074,3.936182 585.979004,3.995307 583.981934,3.995351 
	C389.962128,3.999569 195.942322,3.999302 1.461255,3.999660 
	C1.000000,3.000714 1.000000,2.001429 1.000000,1.001071 
	C197.025833,1.000000 393.051666,1.000000 589.538818,1.000000 
z"/>
<path fill="#FFFFFF" opacity="1.000000" stroke="none" 
	d="
M1.000001,498.500000 
	C195.382339,498.001526 389.764679,497.999756 584.147034,498.050720 
	C586.088379,498.051239 588.029602,498.748749 589.985474,499.560425 
	C395.166687,500.000000 200.333374,500.002228 5.500079,499.958649 
	C3.999984,499.958313 2.500026,499.333313 1.000001,498.500000 
z"/>
<path fill="#FFFFFF" opacity="1.000000" stroke="none" 
	d="
M356.103729,206.170212 
	C354.590057,206.170380 353.484711,206.170380 351.298676,206.170380 
	C361.743530,219.354340 371.598846,231.794159 382.135040,245.093430 
	C375.820618,245.093430 370.291321,245.240921 364.782104,244.974014 
	C363.624603,244.917938 362.324463,243.512711 361.457031,242.434082 
	C353.734100,232.831116 345.489685,223.567764 338.636505,213.372467 
	C333.895996,206.320129 328.247101,205.137039 320.426208,206.653885 
	C320.426208,219.270706 320.426208,232.018692 320.426208,244.917923 
	C315.152191,244.917923 310.381592,244.917923 305.366669,244.917923 
	C305.366669,227.281235 305.366669,209.842834 305.366669,191.747238 
	C310.567352,191.747238 315.828125,191.747238 321.088898,191.747238 
	C330.587555,191.747238 340.086212,191.750687 349.584869,191.746078 
	C356.866577,191.742554 360.240540,188.451279 360.247498,181.358170 
	C360.249603,179.191803 360.266052,177.025269 360.244049,174.859116 
	C360.191772,169.711075 356.444611,165.922974 351.274292,165.912933 
	C336.125519,165.883484 320.976624,165.902451 305.475220,165.902451 
	C305.475220,161.092865 305.475220,156.517136 305.475220,151.461792 
	C306.745880,151.378220 308.176270,151.204224 309.606873,151.202347 
	C324.771362,151.182495 339.937439,151.085342 355.098755,151.305969 
	C357.302460,151.338028 359.699097,152.593185 361.639709,153.849060 
	C373.147461,161.296524 377.918121,171.653412 375.787079,185.467621 
	C375.201630,189.262634 374.824646,192.372223 371.662201,194.934341 
	C368.176880,197.758026 365.209106,201.217270 361.749878,204.078064 
	C360.370605,205.218750 358.279266,205.498413 356.103729,206.170212 
z"/>
<path fill="#FFFFFF" opacity="1.000000" stroke="none" 
	d="
M331.219238,269.224060 
	C325.017670,269.573029 320.323792,274.433380 320.286438,280.063324 
	C320.276489,281.563080 320.279083,283.062958 320.286255,284.562744 
	C320.314850,290.542664 323.763062,294.075592 329.631500,294.086304 
	C338.796906,294.103027 347.967377,293.927612 357.124207,294.208282 
	C359.344666,294.276337 361.758636,295.449493 363.676270,296.726288 
	C373.323700,303.149689 377.060394,311.862396 375.931702,323.742523 
	C375.294952,330.445129 373.621979,335.122284 368.968964,340.133118 
	C362.366638,347.243225 355.332794,349.769989 345.807007,349.210083 
	C332.524414,348.429352 319.161621,349.013428 305.475342,349.013428 
	C305.475342,344.175171 305.475342,339.469604 305.475342,334.217010 
	C315.006592,334.217010 324.455994,334.217010 333.905365,334.217010 
	C339.071350,334.217010 344.237305,334.218536 349.403290,334.216614 
	C357.383179,334.213684 361.095673,330.525482 361.096405,322.603363 
	C361.096558,320.770264 361.113861,318.937012 361.093323,317.104126 
	C361.039185,312.272217 357.669739,308.901306 352.703278,308.875122 
	C343.204803,308.825104 333.701324,309.017456 324.210541,308.743011 
	C322.012543,308.679443 319.332855,307.692963 317.764313,306.197937 
	C304.087921,293.162720 304.121399,293.098175 305.174988,273.920441 
	C305.248627,272.580475 306.098053,271.265442 306.679932,269.981079 
	C306.872772,269.555328 307.416168,269.303345 307.701935,268.902527 
	C316.264862,256.892029 327.550629,252.406204 342.403259,254.214508 
	C353.059265,255.511856 364.000458,254.466888 375.207031,254.466888 
	C375.207031,259.322357 375.207031,263.894836 375.207031,269.224060 
	C360.842834,269.224060 346.266724,269.224060 331.219238,269.224060 
z"/>
<path fill="#FFFFFF" opacity="1.000000" stroke="none" 
	d="
M197.317474,241.931213 
	C189.611908,232.259750 181.663498,223.213043 174.877182,213.365509 
	C170.315689,206.746368 164.975021,204.807892 157.143280,206.678101 
	C157.143280,219.079880 157.143280,231.803543 157.143280,244.818115 
	C151.926483,244.818115 147.207794,244.818115 142.255371,244.818115 
	C142.255371,227.319366 142.255371,209.891281 142.255371,191.751312 
	C145.941223,191.751312 149.686005,191.751328 153.430786,191.751312 
	C164.760132,191.751282 176.089539,191.775757 187.418777,191.739853 
	C192.397217,191.724075 196.479813,187.695114 196.563583,182.798523 
	C196.609177,180.133575 196.600174,177.466843 196.565659,174.801559 
	C196.499939,169.726624 192.656204,165.920609 187.489792,165.910721 
	C172.526031,165.882050 157.562195,165.900574 142.313751,165.900574 
	C142.313751,161.002747 142.313751,156.418228 142.313751,151.192627 
	C146.372177,151.192627 150.473022,151.192627 154.573883,151.192627 
	C166.736267,151.192642 178.901749,151.050659 191.058365,151.315262 
	C193.422195,151.366699 195.984283,152.637573 198.058228,153.965500 
	C209.514587,161.300934 213.855148,171.661835 211.907806,185.238281 
	C211.306992,189.427002 210.799347,192.865280 207.275055,195.471054 
	C205.547241,196.748566 204.113586,198.423996 202.547134,199.919693 
	C196.421402,205.768692 196.421448,205.768738 187.884842,206.564911 
	C195.096603,215.684113 201.971039,224.571381 209.093506,233.255219 
	C211.034485,235.621674 211.862701,237.712952 210.166412,240.359009 
	C209.118530,241.993652 208.065964,244.709076 206.753922,244.875351 
	C203.570221,245.278839 199.599747,246.493683 197.317474,241.931213 
z"/>
<path fill="#FFFFFF" opacity="1.000000" stroke="none" 
	d="
M292.116974,319.793427 
	C295.797211,329.606537 299.364075,339.046326 303.049805,348.800812 
	C297.389038,348.800812 292.136902,348.800812 286.530731,348.800812 
	C283.730560,341.141724 281.049896,333.333771 277.935028,325.703094 
	C277.334045,324.230865 275.059814,322.547394 273.511841,322.501587 
	C263.699127,322.211212 253.869217,322.208527 244.056839,322.504272 
	C242.517975,322.550659 240.270233,324.286377 239.662704,325.776123 
	C236.599762,333.286774 233.971588,340.974731 231.131088,348.764313 
	C225.719238,348.764313 220.451050,348.764313 214.270020,348.764313 
	C226.615768,317.185211 238.872925,285.832764 251.065018,254.646729 
	C256.675385,254.646729 262.989960,252.827682 266.639893,255.166687 
	C270.174225,257.431641 271.133972,263.910431 272.934845,268.648499 
	C279.357727,285.547058 285.657318,302.492462 292.116974,319.793427 
M255.752548,281.173737 
	C252.617630,289.779663 249.482727,298.385590 246.236877,307.296082 
	C255.021530,307.296082 262.906586,307.296082 271.436371,307.296082 
	C267.229767,295.776886 263.192383,284.720978 258.807465,272.713470 
	C257.569580,276.072784 256.768463,278.246857 255.752548,281.173737 
z"/>
<path fill="#FFFFFF" opacity="1.000000" stroke="none" 
	d="
M260.799103,151.194809 
	C265.193634,150.444138 266.926270,152.109543 268.334778,155.941925 
	C278.697723,184.137985 289.375793,212.218170 299.940430,240.340195 
	C300.455811,241.712173 300.838440,243.134018 301.466797,245.111389 
	C296.451416,245.111389 291.840454,245.307968 287.269135,244.969650 
	C286.161407,244.887680 284.710754,243.225540 284.225067,241.976181 
	C281.399017,234.706360 278.896851,227.310608 276.066711,220.042511 
	C275.585144,218.805801 274.063873,217.120148 272.993500,217.098495 
	C262.189911,216.880219 251.380203,216.965500 240.492310,216.965500 
	C237.452682,225.350861 234.445023,233.419113 231.629135,241.553741 
	C230.769623,244.036819 229.769684,245.414749 226.761932,245.197906 
	C222.298599,244.876129 217.794846,245.114594 212.689224,245.114594 
	C213.314331,243.233139 213.734283,241.720734 214.310837,240.270599 
	C225.348450,212.509323 236.493118,184.789978 247.363022,156.963287 
	C249.031158,152.692902 250.979080,150.230453 255.850113,151.152527 
	C257.297516,151.426514 258.840637,151.194809 260.799103,151.194809 
M250.285263,189.815201 
	C248.905106,193.775436 247.524948,197.735672 246.105316,201.809128 
	C254.117950,201.809128 261.547485,201.809128 269.575104,201.809128 
	C265.658203,191.051865 261.886536,180.693344 257.763855,169.370926 
	C255.123703,176.700699 252.886581,182.911514 250.285263,189.815201 
z"/>
<path fill="#FFFFFF" opacity="1.000000" stroke="none" 
	d="
M203.297745,297.348022 
	C203.297775,300.911377 203.297775,304.033630 203.297775,307.452576 
	C187.666916,307.452576 172.557846,307.452576 157.192993,307.452576 
	C157.192993,316.362274 157.192993,324.963837 157.192993,334.007874 
	C174.535645,334.007874 191.927841,334.007874 209.690308,334.007874 
	C209.690308,339.138367 209.690308,343.838440 209.690308,348.778961 
	C187.323380,348.778961 164.918884,348.778961 142.269623,348.778961 
	C142.269623,330.250000 142.269623,311.821686 142.269623,293.049713 
	C162.410675,293.049713 182.609543,293.049713 203.297714,293.049713 
	C203.297714,294.343292 203.297714,295.625122 203.297745,297.348022 
z"/>
<path fill="#FFFFFF" opacity="1.000000" stroke="none" 
	d="
M438.835815,307.539246 
	C425.728333,307.539246 413.100616,307.539246 400.228027,307.539246 
	C400.228027,316.381134 400.228027,324.974792 400.228027,334.050598 
	C416.900635,334.050598 433.600098,334.050598 450.625916,334.050598 
	C450.625916,339.094452 450.625916,343.676941 450.625916,348.638519 
	C429.174835,348.638519 407.478180,348.638519 385.459961,348.638519 
	C385.459961,330.249451 385.459961,311.709106 385.459961,292.953430 
	C405.696777,292.953430 425.927216,292.953430 446.357849,292.953430 
	C446.357849,297.782410 446.357849,302.359070 446.357849,307.539246 
	C443.863586,307.539246 441.589600,307.539246 438.835815,307.539246 
z"/>
<path fill="#FFFFFF" opacity="1.000000" stroke="none" 
	d="
M446.261780,202.494659 
	C432.870209,203.001602 419.722717,203.112534 406.575104,203.217209 
	C404.600830,203.232925 402.626251,203.219391 400.315857,203.219391 
	C400.315857,212.225174 400.315857,220.949677 400.315857,230.176178 
	C416.970978,230.176178 433.690460,230.176178 450.677277,230.176178 
	C450.677277,235.252625 450.677277,239.841385 450.677277,244.775574 
	C429.049469,244.775574 407.346008,244.775574 385.393372,244.775574 
	C385.393372,226.294373 385.393372,207.878113 385.393372,189.120514 
	C405.664398,189.120514 425.877716,189.120514 446.505798,189.120514 
	C446.505798,193.506638 446.505798,197.801620 446.261780,202.494659 
z"/>
<path fill="#FFFFFF" opacity="1.000000" stroke="none" 
	d="
M152.060669,269.228149 
	C148.587738,269.228149 145.603317,269.228149 142.319550,269.228149 
	C142.319550,264.291107 142.319550,259.600281 142.319550,254.688202 
	C164.865082,254.688202 187.262711,254.688202 209.866119,254.688202 
	C209.866119,259.522003 209.866119,264.130646 209.866119,269.228180 
	C190.722977,269.228180 171.636078,269.228180 152.060669,269.228149 
z"/>
<path fill="#FFFFFF" opacity="1.000000" stroke="none" 
	d="
M386.593079,254.544373 
	C408.150909,254.475601 429.258606,254.475601 450.663818,254.475601 
	C450.663818,259.394257 450.663818,263.971619 450.663818,268.893372 
	C429.085388,268.893372 407.395660,268.893372 384.768677,268.893372 
	C385.228851,264.111481 385.685913,259.362305 386.593079,254.544373 
z"/>
<path fill="#FFFFFF" opacity="1.000000" stroke="none" 
	d="
M395.046936,165.900391 
	C391.595337,165.900391 388.635193,165.900391 385.145935,165.900391 
	C385.145935,163.202911 385.145905,160.922806 385.145905,158.642715 
	C385.145905,156.328033 385.145935,154.013351 385.145935,151.354828 
	C407.064331,151.354828 428.770233,151.354828 450.715363,151.354828 
	C450.715363,155.974350 450.715363,160.578125 450.715363,165.900391 
	C432.366760,165.900391 413.952576,165.900391 395.046936,165.900391 
z"/>
<path fill="#FFFFFF" opacity="1.000000" stroke="none" 
	d="
M469.640533,338.266846 
	C471.926788,335.199554 471.067169,333.795624 467.745178,333.664093 
	C465.190979,333.562988 462.637726,333.437012 460.137115,332.760406 
	C464.308441,329.784882 471.271851,330.190155 473.090424,333.026123 
	C475.715759,337.120178 473.071320,339.750732 469.985199,342.030731 
	C471.404419,344.101105 472.665192,345.940338 473.925964,347.779572 
	C473.527924,348.238831 473.129852,348.698090 472.731812,349.157349 
	C469.944336,346.519073 467.156860,343.880768 463.460358,340.382080 
	C463.460358,343.988495 463.460358,346.217651 463.460358,348.438812 
	C459.631714,348.523376 459.625427,348.500946 460.463989,338.483551 
	C463.344757,338.483551 466.290710,338.483551 469.640533,338.266846 
z"/>
<path fill="#FFFFFF" opacity="1.000000" stroke="none" 
	d="
M478.076569,336.780273 
	C480.637695,337.637360 483.163788,338.034698 485.689880,338.432037 
	C485.827606,338.908966 485.965363,339.385895 486.103088,339.862854 
	C483.573212,340.397125 481.043365,340.931427 478.258057,341.519653 
	C478.258057,342.708771 478.258057,344.115417 478.258057,345.576385 
	C481.618225,345.969421 484.921814,346.355835 488.225403,346.742279 
	C488.130432,347.367157 488.035492,347.992065 487.940552,348.616943 
	C483.801605,348.616943 479.662689,348.616943 475.270569,348.616943 
	C475.270569,342.917786 475.270569,337.170532 475.270569,331.060181 
	C479.376404,331.060181 483.531036,331.060181 487.685669,331.060181 
	C487.785461,331.575867 487.885254,332.091522 487.985016,332.607208 
	C486.295258,332.958984 484.583649,333.230774 482.921600,333.684113 
	C481.109161,334.178497 477.783020,331.981171 478.076569,336.780273 
z"/>
<path fill="#FFFFFF" opacity="1.000000" stroke="none" 
	d="
M484.722412,328.991272 
	C476.297302,328.806885 468.345398,328.627045 460.395660,328.378876 
	C460.304657,328.376007 460.241333,327.486664 460.000916,325.987488 
	C463.524323,325.987488 466.868744,325.987427 470.213135,325.987488 
	C475.211395,325.987549 480.211121,325.925323 485.206543,326.044220 
	C486.128448,326.066193 487.032898,326.821289 487.945404,327.238007 
	C487.028870,327.822357 486.112335,328.406708 484.722412,328.991272 
z"/>
<path fill="#FFFFFF" opacity="1.000000" stroke="none" 
	d="
M255.859924,280.797302 
	C256.768463,278.246857 257.569580,276.072784 258.807465,272.713470 
	C263.192383,284.720978 267.229767,295.776886 271.436371,307.296082 
	C262.906586,307.296082 255.021530,307.296082 246.236877,307.296082 
	C249.482727,298.385590 252.617630,289.779663 255.859924,280.797302 
z"/>
<path fill="#FFFFFF" opacity="1.000000" stroke="none" 
	d="
M250.467361,189.468781 
	C252.886581,182.911514 255.123703,176.700699 257.763855,169.370926 
	C261.886536,180.693344 265.658203,191.051865 269.575104,201.809128 
	C261.547485,201.809128 254.117950,201.809128 246.105316,201.809128 
	C247.524948,197.735672 248.905106,193.775436 250.467361,189.468781 
z"/>
</svg>