<svg xmlns="http://www.w3.org/2000/svg" viewBox="0 0 348 200" width="100%">
  <!-- Extract exact letterforms from the original SVG paths, scaled to fit a text banner -->
  <!-- Original viewBox 0 0 591 499, letters at y:151-349 (198px tall), x:142-490 (348px wide) -->
  <!-- We scale + translate to fit viewBox 0 0 591 200 -->
  <g transform="translate(-142, -151) scale(1, 1)">
    <!-- R (top-left, x≈142-210, y≈151-245) -->
    <path fill="#FFFFFF" d="
      M197.569153,242.215164 
      C199.599747,246.493683 203.570221,245.278839 206.753922,244.875351 
      C208.065964,244.709076 209.118530,241.993652 210.166412,240.359009 
      C211.862701,237.712952 211.034485,235.621674 209.093506,233.255219 
      C201.971039,224.571381 195.096603,215.684113 187.884842,206.564911 
      C196.421448,205.768738 196.421402,205.768692 202.547134,199.919693 
      C204.113586,198.423996 205.547241,196.748566 207.275055,195.471054 
      C210.799347,192.865280 211.306992,189.427002 211.907806,185.238281 
      C213.855148,171.661835 209.514587,161.300934 198.058228,153.965500 
      C195.984283,152.637573 193.422195,151.366699 191.058365,151.315262 
      C178.901749,151.050659 166.736267,151.192642 154.573883,151.192627 
      C150.473022,151.192627 146.372177,151.192627 142.313751,151.192627 
      C142.313751,156.418228 142.313751,161.002747 142.313751,165.900574 
      C157.562195,165.900574 172.526031,165.882050 187.489792,165.910721 
      C192.656204,165.920609 196.499939,169.726624 196.565659,174.801559 
      C196.600174,177.466843 196.609177,180.133575 196.563583,182.798523 
      C196.479813,187.695114 192.397217,191.724075 187.418777,191.739853 
      C176.089539,191.775757 164.760132,191.751282 153.430786,191.751312 
      C149.686005,191.751328 145.941223,191.751312 142.255371,191.751312 
      C142.255371,209.891281 142.255371,227.319366 142.255371,244.818115 
      C147.207794,244.818115 151.926483,244.818115 157.143280,244.818115 
      C157.143280,231.803543 157.143280,219.079880 157.143280,206.678101 
      C164.975021,204.807892 170.315689,206.746368 174.877182,213.365509 
      C181.663498,223.213043 189.611908,232.259750 197.569153,242.215164z
    "/>
    <!-- A top (x≈213-301, y≈151-245) -->
    <path fill="#FFFFFF" d="
      M260.339905,151.194809 
      C258.840637,151.194809 257.297516,151.426514 255.850113,151.152527 
      C250.979080,150.230453 249.031158,152.692902 247.363022,156.963287 
      C236.493118,184.789978 225.348450,212.509323 214.310837,240.270599 
      C213.734283,241.720734 213.314331,243.233139 212.689224,245.114594 
      C217.794846,245.114594 222.298599,244.876129 226.761932,245.197906 
      C229.769684,245.414749 230.769623,244.036819 231.629135,241.553741 
      C234.445023,233.419113 237.452682,225.350861 240.492310,216.965500 
      C251.380203,216.965500 262.189911,216.880219 272.993500,217.098495 
      C274.063873,217.120148 275.585144,218.805801 276.066711,220.042511 
      C278.896851,227.310608 281.399017,234.706360 284.225067,241.976181 
      C284.710754,243.225540 286.161407,244.887680 287.269135,244.969650 
      C291.840454,245.307968 296.451416,245.111389 301.466797,245.111389 
      C300.838440,243.134018 300.455811,241.712173 299.940430,240.340195 
      C289.375793,212.218170 278.697723,184.137985 268.334778,155.941925 
      C266.926270,152.109543 265.193634,150.444138 260.339905,151.194809z
    "/>
    <path fill="#FFFFFF" d="
      M250.285263,189.815201 
      C248.905106,193.775436 247.524948,197.735672 246.105316,201.809128 
      C254.117950,201.809128 261.547485,201.809128 269.575104,201.809128 
      C265.658203,191.051865 261.886536,180.693344 257.763855,169.370926 
      C255.123703,176.700699 252.886581,182.911514 250.285263,189.815201z
    "/>
    <!-- R second (x≈305-382, y≈151-245) -->
    <path fill="#FFFFFF" d="
      M356.512085,206.170044 
      C358.279266,205.498413 360.370605,205.218750 361.749878,204.078064 
      C365.209106,201.217270 368.176880,197.758026 371.662201,194.934341 
      C374.824646,192.372223 375.201630,189.262634 375.787079,185.467621 
      C377.918121,171.653412 373.147461,161.296524 361.639709,153.849060 
      C359.699097,152.593185 357.302460,151.338028 355.098755,151.305969 
      C339.937439,151.085342 324.771362,151.182495 309.606873,151.202347 
      C308.176270,151.204224 306.745880,151.378220 305.475220,151.461792 
      C305.475220,156.517136 305.475220,161.092865 305.475220,165.902451 
      C320.976624,165.902451 336.125519,165.883484 351.274292,165.912933 
      C356.444611,165.922974 360.191772,169.711075 360.244049,174.859116 
      C360.266052,177.025269 360.249603,179.191803 360.247498,181.358170 
      C360.240540,188.451279 356.866577,191.742554 349.584869,191.746078 
      C340.086212,191.750687 330.587555,191.747238 321.088898,191.747238 
      C315.828125,191.747238 310.567352,191.747238 305.366669,191.747238 
      C305.366669,209.842834 305.366669,227.281235 305.366669,244.917923 
      C310.381592,244.917923 315.152191,244.917923 320.426208,244.917923 
      C320.426208,232.018692 320.426208,219.270706 320.426208,206.653885 
      C328.247101,205.137039 333.895996,206.320129 338.636505,213.372467 
      C345.489685,223.567764 353.734100,232.831116 361.457031,242.434082 
      C362.324463,243.512711 363.624603,244.917938 364.782104,244.974014 
      C370.291321,245.240921 375.820618,245.093430 382.135040,245.093430 
      C371.598846,231.794159 361.743530,219.354340 351.298676,206.170380 
      C353.484711,206.170380 354.590057,206.170380 356.512085,206.170044z
    "/>
    <!-- É (x≈142-210, y≈254-349) -->
    <path fill="#FFFFFF" d="
      M203.297745,297.348022 
      C203.297775,300.911377 203.297775,304.033630 203.297775,307.452576 
      C187.666916,307.452576 172.557846,307.452576 157.192993,307.452576 
      C157.192993,316.362274 157.192993,324.963837 157.192993,334.007874 
      C174.535645,334.007874 191.927841,334.007874 209.690308,334.007874 
      C209.690308,339.138367 209.690308,343.838440 209.690308,348.778961 
      C187.323380,348.778961 164.918884,348.778961 142.269623,348.778961 
      C142.269623,330.250000 142.269623,311.821686 142.269623,293.049713 
      C162.410675,293.049713 182.609543,293.049713 203.297714,293.049713 
      C203.297714,294.343292 203.297714,295.625122 203.297745,297.348022z
    "/>
    <path fill="#FFFFFF" d="
      M152.060669,269.228149 
      C148.587738,269.228149 145.603317,269.228149 142.319550,269.228149 
      C142.319550,264.291107 142.319550,259.600281 142.319550,254.688202 
      C164.865082,254.688202 187.262711,254.688202 209.866119,254.688202 
      C209.866119,259.522003 209.866119,264.130646 209.866119,269.228180 
      C190.722977,269.228180 171.636078,269.228180 152.060669,269.228149z
    "/>
    <!-- A second (x≈213-303, y≈254-349) -->
    <path fill="#FFFFFF" d="
      M292.003571,319.420135 
      C285.657318,302.492462 279.357727,285.547058 272.934845,268.648499 
      C271.133972,263.910431 270.174225,257.431641 266.639893,255.166687 
      C262.989960,252.827682 256.675385,254.646729 251.065018,254.646729 
      C238.872925,285.832764 226.615768,317.185211 214.270020,348.764313 
      C220.451050,348.764313 225.719238,348.764313 231.131088,348.764313 
      C233.971588,340.974731 236.599762,333.286774 239.662704,325.776123 
      C240.270233,324.286377 242.517975,322.550659 244.056839,322.504272 
      C253.869217,322.208527 263.699127,322.211212 273.511841,322.501587 
      C275.059814,322.547394 277.334045,324.230865 277.935028,325.703094 
      C281.049896,333.333771 283.730560,341.141724 286.530731,348.800812 
      C292.136902,348.800812 297.389038,348.800812 303.049805,348.800812 
      C299.364075,339.046326 295.797211,329.606537 292.003571,319.420135z
    "/>
    <path fill="#FFFFFF" d="
      M255.859924,280.797302 
      C256.768463,278.246857 257.569580,276.072784 258.807465,272.713470 
      C263.192383,284.720978 267.229767,295.776886 271.436371,307.296082 
      C262.906586,307.296082 255.021530,307.296082 246.236877,307.296082 
      C249.482727,298.385590 252.617630,289.779663 255.859924,280.797302z
    "/>
    <!-- S (x≈305-376, y≈254-349) -->
    <path fill="#FFFFFF" d="
      M331.690613,269.224060 
      C346.266724,269.224060 360.842834,269.224060 375.207031,269.224060 
      C375.207031,263.894836 375.207031,259.322357 375.207031,254.466888 
      C364.000458,254.466888 353.059265,255.511856 342.403259,254.214508 
      C327.550629,252.406204 316.264862,256.892029 307.701935,268.902527 
      C307.416168,269.303345 306.872772,269.555328 306.679932,269.981079 
      C306.098053,271.265442 305.248627,272.580475 305.174988,273.920441 
      C304.121399,293.098175 304.087921,293.162720 317.764313,306.197937 
      C319.332855,307.692963 322.012543,308.679443 324.210541,308.743011 
      C333.701324,309.017456 343.204803,308.825104 352.703278,308.875122 
      C357.669739,308.901306 361.039185,312.272217 361.093323,317.104126 
      C361.113861,318.937012 361.096558,320.770264 361.096405,322.603363 
      C361.095673,330.525482 357.383179,334.213684 349.403290,334.216614 
      C344.237305,334.218536 339.071350,334.217010 333.905365,334.217010 
      C324.455994,334.217010 315.006592,334.217010 305.475342,334.217010 
      C305.475342,339.469604 305.475342,344.175171 305.475342,349.013428 
      C319.161621,349.013428 332.524414,348.429352 345.807007,349.210083 
      C355.332794,349.769989 362.366638,347.243225 368.968964,340.133118 
      C373.621979,335.122284 375.294952,330.445129 375.931702,323.742523 
      C377.060394,311.862396 373.323700,303.149689 363.676270,296.726288 
      C361.758636,295.449493 359.344666,294.276337 357.124207,294.208282 
      C347.967377,293.927612 338.796906,294.103027 329.631500,294.086304 
      C323.763062,294.075592 320.314850,290.542664 320.286255,284.562744 
      C320.279083,283.062958 320.276489,281.563080 320.286438,280.063324 
      C320.323792,274.433380 325.017670,269.573029 331.690613,269.224060z
    "/>
    <!-- E (x≈385-451, y≈151-245) -->
    <path fill="#FFFFFF" d="
      M446.261780,202.494659 
      C432.870209,203.001602 419.722717,203.112534 406.575104,203.217209 
      C404.600830,203.232925 402.626251,203.219391 400.315857,203.219391 
      C400.315857,212.225174 400.315857,220.949677 400.315857,230.176178 
      C416.970978,230.176178 433.690460,230.176178 450.677277,230.176178 
      C450.677277,235.252625 450.677277,239.841385 450.677277,244.775574 
      C429.049469,244.775574 407.346008,244.775574 385.393372,244.775574 
      C385.393372,226.294373 385.393372,207.878113 385.393372,189.120514 
      C405.664398,189.120514 425.877716,189.120514 446.505798,189.120514 
      C446.505798,193.506638 446.505798,197.801620 446.261780,202.494659z
    "/>
    <path fill="#FFFFFF" d="
      M395.046936,165.900391 
      C391.595337,165.900391 388.635193,165.900391 385.145935,165.900391 
      C385.145935,163.202911 385.145905,160.922806 385.145905,158.642715 
      C385.145905,156.328033 385.145935,154.013351 385.145935,151.354828 
      C407.064331,151.354828 428.770233,151.354828 450.715363,151.354828 
      C450.715363,155.974350 450.715363,160.578125 450.715363,165.900391 
      C432.366760,165.900391 413.952576,165.900391 395.046936,165.900391z
    "/>
    <!-- E second (x≈385-451, y≈254-349) -->
    <path fill="#FFFFFF" d="
      M438.835815,307.539246 
      C425.728333,307.539246 413.100616,307.539246 400.228027,307.539246 
      C400.228027,316.381134 400.228027,324.974792 400.228027,334.050598 
      C416.900635,334.050598 433.600098,334.050598 450.625916,334.050598 
      C450.625916,339.094452 450.625916,343.676941 450.625916,348.638519 
      C429.174835,348.638519 407.478180,348.638519 385.459961,348.638519 
      C385.459961,330.249451 385.459961,311.709106 385.459961,292.953430 
      C405.696777,292.953430 425.927216,292.953430 446.357849,292.953430 
      C446.357849,297.782410 446.357849,302.359070 446.357849,307.539246 
      C443.863586,307.539246 441.589600,307.539246 438.835815,307.539246z
    "/>
    <path fill="#FFFFFF" d="
      M386.593079,254.544373 
      C408.150909,254.475601 429.258606,254.475601 450.663818,254.475601 
      C450.663818,259.394257 450.663818,263.971619 450.663818,268.893372 
      C429.085388,268.893372 407.395660,268.893372 384.768677,268.893372 
      C385.228851,264.111481 385.685913,259.362305 386.593079,254.544373z
    "/>
  </g>
</svg>
